<?xml version="1.0" encoding="utf-8"?>
<!-- Generator: Adobe Illustrator 25.4.1, SVG Export Plug-In . SVG Version: 6.00 Build 0)  -->
<svg version="1.1" id="Layer_1" xmlns="http://www.w3.org/2000/svg" xmlns:xlink="http://www.w3.org/1999/xlink" x="0px" y="0px"
	 viewBox="0 0 260 519" style="enable-background:new 0 0 260 519;" xml:space="preserve">
<style type="text/css">
	.st0{fill:#F7FF96;}
	.st1{fill:#F9F5E9;}
	.st2{opacity:0.1;}
	.st3{fill:#F9F5E9;stroke:#000000;stroke-width:3;}
	.st4{fill:#00511B;}
	.st5{fill:none;stroke:#FFFFFF;stroke-width:3;}
	.st6{fill:#FFFFFF;}
	.st7{fill:#CC00FF;}
	.st8{opacity:0.4;fill:none;stroke:#8B2886;stroke-width:7;stroke-miterlimit:10;}
	.st9{fill:#525174;}
	.st10{fill:#EE9300;}
	.st11{fill:#9302C3;}
	.st12{fill:#025C00;}
	.st13{fill:#0F0F0F;}
	.st14{fill:none;stroke:#F9F5E9;stroke-miterlimit:10;}
	.st15{fill:none;stroke:#FFFFFF;stroke-width:2;stroke-miterlimit:10;}
	.st16{fill:#0012B4;}
	.st17{fill:#F9F5E9;stroke:#E0DDD2;}
	.st18{opacity:0.05;}
	.st19{fill:none;stroke:#000000;stroke-width:3;}
	.st20{fill:none;stroke:#0F0F0F;stroke-miterlimit:10;}
	.st21{fill:#D600DC;}
	.st22{fill:#FFFB84;}
	.st23{fill:none;stroke:#0012B4;stroke-width:5;stroke-linecap:round;stroke-miterlimit:10;}
	.st24{clip-path:url(#SVGID_00000086679337532559313380000012855981454797065654_);}
	.st25{fill:#FBC2F7;}
	.st26{clip-path:url(#SVGID_00000044861508126108862440000005233615155298102158_);}
	.st27{fill:none;stroke:#A5E7FF;stroke-width:3;stroke-miterlimit:10;}
	.st28{clip-path:url(#SVGID_00000116197716292965085950000002451423722879417760_);}
</style>
<g>
	<path class="st6" d="M97.93,499H40.05V20.89h57.87V224.5h69.67V20.89h57.87V499H167.6V282.38H97.93V499z"/>
	<g>
		<defs>
			<path id="SVGID_00000011732970140885556720000005182903997407765175_" d="M97.93,499H40.05V20.89h57.87V224.5h69.67V20.89h57.87
				V499H167.6V282.38H97.93V499z"/>
		</defs>
		<clipPath id="SVGID_00000063596000372390147270000005497829501854555048_">
			<use xlink:href="#SVGID_00000011732970140885556720000005182903997407765175_"  style="overflow:visible;"/>
		</clipPath>
		<g style="clip-path:url(#SVGID_00000063596000372390147270000005497829501854555048_);">
			<g>
				<path class="st25" d="M82.6,170.08c-0.38,0.38-0.88,0.57-1.38,0.57s-1-0.19-1.38-0.57l-64.52-64.52l-32.64,32.64
					c-0.38,0.38-0.88,0.57-1.38,0.57s-1-0.19-1.38-0.57c-0.75-0.76-0.75-1.99,0-2.75l32.64-32.64L-6.07,84.16
					c-0.75-0.76-0.75-1.99,0-2.75c0.76-0.75,1.99-0.75,2.75,0l18.64,18.64l50.52-50.52c0.76-0.75,1.99-0.75,2.75,0
					c0.75,0.76,0.75,1.99,0,2.75l-50.52,50.52l64.52,64.52C83.35,168.09,83.35,169.32,82.6,170.08z"/>
			</g>
			<g>
				<path class="st25" d="M83.48,530.88l-25.89,5.02l13.61,70.15c0.2,1.06-0.48,2.08-1.54,2.28c-0.12,0.02-0.25,0.04-0.37,0.04
					c-0.91,0-1.73-0.65-1.9-1.58l-13.61-70.15l-89.58,17.38c-0.12,0.02-0.25,0.04-0.37,0.04c-0.92,0-1.73-0.65-1.91-1.58
					c-0.2-1.05,0.49-2.07,1.54-2.28l89.58-17.37l-8.79-45.32c-0.2-1.05,0.49-2.08,1.54-2.28c1.05-0.2,2.08,0.48,2.28,1.54
					l8.79,45.32l25.88-5.02c1.06-0.21,2.08,0.48,2.28,1.53C85.22,529.66,84.53,530.68,83.48,530.88z"/>
			</g>
			<g>
				<path class="st25" d="M259.09,211.31c-0.31,0.75-1.03,1.21-1.8,1.21c-0.24,0-0.5-0.05-0.74-0.15l-66.06-27.24l-34.78,84.35
					c-0.31,0.75-1.03,1.21-1.8,1.21c-0.24,0-0.5-0.05-0.74-0.15c-0.99-0.4-1.46-1.55-1.06-2.53l34.79-84.36l-42.68-17.6
					c-1-0.41-1.46-1.55-1.06-2.53c0.41-1,1.55-1.47,2.54-1.06l42.67,17.6l10.05-24.38c0.41-1,1.55-1.47,2.54-1.06
					c1,0.4,1.46,1.55,1.06,2.53l-10.05,24.38l66.06,27.24C259.02,209.19,259.5,210.32,259.09,211.31z"/>
			</g>
			<g>
				<path class="st25" d="M137.02,318.58c-0.38,0.38-0.88,0.57-1.38,0.57c-0.5,0-1-0.19-1.38-0.57l-64.52-64.52l-32.64,32.64
					c-0.38,0.38-0.88,0.57-1.38,0.57c-0.5,0-1-0.19-1.38-0.57c-0.75-0.76-0.75-1.99,0-2.75L67,251.31l-18.64-18.65
					c-0.75-0.76-0.75-1.99,0-2.75c0.76-0.75,1.99-0.75,2.75,0l18.64,18.64l50.52-50.52c0.76-0.75,1.99-0.75,2.75,0
					c0.75,0.76,0.75,1.99,0,2.75L72.5,251.31l64.52,64.52C137.78,316.59,137.78,317.82,137.02,318.58z"/>
			</g>
			<g>
				<path class="st25" d="M297.48,98.62c-0.24,0.86-1.03,1.42-1.87,1.42c-0.18,0-0.36-0.02-0.54-0.08l-87.76-24.98l-12.64,44.4
					c-0.24,0.86-1.02,1.42-1.87,1.42c-0.18,0-0.36-0.02-0.54-0.08c-1.03-0.3-1.63-1.37-1.34-2.4l12.64-44.4l-25.36-7.22
					c-1.03-0.3-1.63-1.37-1.34-2.4c0.3-1.03,1.38-1.63,2.4-1.34l25.36,7.22l19.57-68.73c0.29-1.03,1.37-1.63,2.39-1.34
					c1.03,0.3,1.63,1.37,1.34,2.4l-19.56,68.73l87.76,24.98C297.18,96.51,297.78,97.59,297.48,98.62z"/>
			</g>
			<g>
				<path class="st25" d="M261.71,507.59c-0.24,0.86-1.03,1.42-1.87,1.42c-0.18,0-0.36-0.02-0.54-0.08l-87.76-24.98l-12.64,44.4
					c-0.24,0.86-1.02,1.42-1.87,1.42c-0.18,0-0.36-0.02-0.54-0.08c-1.03-0.3-1.63-1.37-1.34-2.4l12.64-44.4l-25.36-7.22
					c-1.03-0.3-1.63-1.37-1.34-2.4c0.3-1.03,1.38-1.63,2.4-1.34l25.36,7.22l19.57-68.73c0.29-1.03,1.37-1.63,2.39-1.34
					c1.03,0.3,1.63,1.37,1.34,2.4l-19.56,68.73l87.76,24.98C261.41,505.48,262.01,506.57,261.71,507.59z"/>
			</g>
			<g>
				<path class="st25" d="M110.11,350.77l-60.27,38.39l49.01,76.96c0.58,0.91,0.31,2.11-0.59,2.68c-0.33,0.21-0.68,0.31-1.04,0.31
					c-0.65,0-1.28-0.32-1.64-0.9l-49.01-76.97l-38.94,24.8c-0.33,0.21-0.68,0.3-1.04,0.3c-0.65,0-1.28-0.32-1.64-0.89
					c-0.58-0.91-0.31-2.11,0.59-2.69l38.94-24.8l-14.17-22.24c-0.58-0.9-0.31-2.11,0.59-2.68c0.91-0.58,2.11-0.31,2.68,0.6
					l14.17,22.24l60.27-38.39c0.9-0.58,2.11-0.31,2.68,0.6C111.29,348.99,111.02,350.19,110.11,350.77z"/>
			</g>
			<g>
				<path class="st25" d="M257.06,291.67l-60.27,38.39l49.01,76.96c0.58,0.91,0.31,2.11-0.59,2.68c-0.33,0.21-0.68,0.31-1.04,0.31
					c-0.65,0-1.28-0.32-1.64-0.9l-49.01-76.97l-38.94,24.8c-0.33,0.21-0.68,0.3-1.04,0.3c-0.65,0-1.28-0.32-1.64-0.89
					c-0.58-0.91-0.31-2.11,0.59-2.69l38.94-24.8l-14.17-22.24c-0.58-0.9-0.31-2.11,0.59-2.68c0.91-0.58,2.11-0.31,2.68,0.6
					l14.17,22.24l60.27-38.39c0.9-0.58,2.11-0.31,2.68,0.6C258.24,289.89,257.97,291.1,257.06,291.67z"/>
			</g>
		</g>
	</g>
</g>
</svg>
