<?xml version="1.0" encoding="utf-8"?>
<!-- Generator: Adobe Illustrator 25.4.1, SVG Export Plug-In . SVG Version: 6.00 Build 0)  -->
<svg version="1.1" id="Layer_1" xmlns="http://www.w3.org/2000/svg" xmlns:xlink="http://www.w3.org/1999/xlink" x="0px" y="0px"
	 viewBox="0 0 185 478" style="enable-background:new 0 0 185 478;" xml:space="preserve">
<style type="text/css">
	.st0{fill:#F7FF96;}
	.st1{fill:#F9F5E9;}
	.st2{opacity:0.1;}
	.st3{fill:#F9F5E9;stroke:#000000;stroke-width:3;}
	.st4{fill:#00511B;}
	.st5{fill:none;stroke:#FFFFFF;stroke-width:3;}
	.st6{fill:#FFFFFF;}
	.st7{fill:#CC00FF;}
	.st8{opacity:0.4;fill:none;stroke:#8B2886;stroke-width:7;stroke-miterlimit:10;}
	.st9{fill:#525174;}
	.st10{fill:#EE9300;}
	.st11{fill:#9302C3;}
	.st12{fill:#025C00;}
	.st13{fill:#0F0F0F;}
	.st14{fill:none;stroke:#F9F5E9;stroke-miterlimit:10;}
	.st15{fill:none;stroke:#FFFFFF;stroke-width:2;stroke-miterlimit:10;}
	.st16{fill:#0012B4;}
	.st17{fill:#F9F5E9;stroke:#E0DDD2;}
	.st18{opacity:0.05;}
	.st19{fill:none;stroke:#000000;stroke-width:3;}
	.st20{fill:none;stroke:#0F0F0F;stroke-miterlimit:10;}
	.st21{fill:#D600DC;}
	.st22{fill:#FFFB84;}
	.st23{fill:none;stroke:#0012B4;stroke-width:5;stroke-linecap:round;stroke-miterlimit:10;}
	.st24{clip-path:url(#SVGID_00000181062881706993920930000005813651671557080495_);}
	.st25{fill:#FBC2F7;}
	.st26{clip-path:url(#SVGID_00000113349838593531270670000018090040550680522170_);}
	.st27{fill:none;stroke:#A5E7FF;stroke-width:3;stroke-miterlimit:10;}
	.st28{clip-path:url(#SVGID_00000062894346098080547900000012269892096996073383_);}
	.st29{clip-path:url(#SVGID_00000070087111628342068090000003115438798778048939_);}
</style>
<g>
	<path class="st6" d="M57.93,478H0.05V-0.11h57.87V203.5h69.67V-0.11h57.87V478H127.6V261.38H57.93V478z"/>
	<g>
		<defs>
			<path id="SVGID_00000010301884496060113390000004662521411281468572_" d="M57.93,478H0.05V-0.11h57.87V203.5h69.67V-0.11h57.87
				V478H127.6V261.38H57.93V478z"/>
		</defs>
		<clipPath id="SVGID_00000155146589619993710270000017896543287062117794_">
			<use xlink:href="#SVGID_00000010301884496060113390000004662521411281468572_"  style="overflow:visible;"/>
		</clipPath>
		<g style="clip-path:url(#SVGID_00000155146589619993710270000017896543287062117794_);">
			<g>
				<path class="st25" d="M42.6,149.08c-0.38,0.38-0.88,0.57-1.38,0.57c-0.5,0-1-0.19-1.38-0.57l-64.52-64.52l-32.64,32.64
					c-0.38,0.38-0.88,0.57-1.38,0.57s-1-0.19-1.38-0.57c-0.75-0.76-0.75-1.99,0-2.75l32.64-32.64l-18.64-18.65
					c-0.75-0.76-0.75-1.99,0-2.75c0.76-0.75,1.99-0.75,2.75,0l18.64,18.64l50.52-50.52c0.76-0.75,1.99-0.75,2.75,0
					c0.75,0.76,0.75,1.99,0,2.75l-50.52,50.52l64.52,64.52C43.35,147.09,43.35,148.32,42.6,149.08z"/>
			</g>
			<g>
				<path class="st25" d="M43.48,509.88l-25.89,5.02l13.61,70.15c0.2,1.06-0.48,2.08-1.54,2.28c-0.12,0.02-0.25,0.04-0.37,0.04
					c-0.91,0-1.73-0.65-1.9-1.58l-13.61-70.15l-89.58,17.38c-0.12,0.02-0.25,0.04-0.37,0.04c-0.92,0-1.73-0.65-1.91-1.58
					c-0.2-1.05,0.49-2.07,1.54-2.28l89.58-17.37l-8.79-45.32c-0.2-1.05,0.49-2.08,1.54-2.28c1.05-0.2,2.08,0.48,2.28,1.54
					l8.79,45.32l25.88-5.02c1.06-0.21,2.08,0.48,2.28,1.53C45.22,508.66,44.53,509.68,43.48,509.88z"/>
			</g>
			<g>
				<path class="st25" d="M219.09,190.31c-0.31,0.75-1.03,1.21-1.8,1.21c-0.24,0-0.5-0.05-0.74-0.15l-66.06-27.24l-34.78,84.35
					c-0.31,0.75-1.03,1.21-1.8,1.21c-0.24,0-0.5-0.05-0.74-0.15c-0.99-0.4-1.46-1.55-1.06-2.53l34.79-84.36l-42.68-17.6
					c-1-0.41-1.46-1.55-1.06-2.53c0.41-1,1.55-1.47,2.54-1.06l42.67,17.6l10.05-24.38c0.41-1,1.55-1.47,2.54-1.06
					c1,0.4,1.46,1.55,1.06,2.53l-10.05,24.38l66.06,27.24C219.02,188.19,219.5,189.32,219.09,190.31z"/>
			</g>
			<g>
				<path class="st25" d="M97.02,297.58c-0.38,0.38-0.88,0.57-1.38,0.57s-1-0.19-1.38-0.57l-64.52-64.52l-32.64,32.64
					c-0.38,0.38-0.88,0.57-1.38,0.57s-1-0.19-1.38-0.57c-0.75-0.76-0.75-1.99,0-2.75L27,230.31L8.35,211.67
					c-0.75-0.76-0.75-1.99,0-2.75c0.76-0.75,1.99-0.75,2.75,0l18.64,18.64l50.52-50.52c0.76-0.75,1.99-0.75,2.75,0
					c0.75,0.76,0.75,1.99,0,2.75L32.5,230.31l64.52,64.52C97.78,295.59,97.78,296.82,97.02,297.58z"/>
			</g>
			<g>
				<path class="st25" d="M257.48,77.62c-0.24,0.86-1.03,1.42-1.87,1.42c-0.18,0-0.36-0.02-0.54-0.08l-87.76-24.98l-12.64,44.4
					c-0.24,0.86-1.02,1.42-1.87,1.42c-0.18,0-0.36-0.02-0.54-0.08c-1.03-0.3-1.63-1.37-1.34-2.4l12.64-44.4l-25.36-7.22
					c-1.03-0.3-1.63-1.37-1.34-2.4c0.3-1.03,1.38-1.63,2.4-1.34l25.36,7.22l19.57-68.73c0.29-1.03,1.37-1.63,2.39-1.34
					c1.03,0.3,1.63,1.37,1.34,2.4l-19.56,68.73l87.76,24.98C257.18,75.51,257.78,76.59,257.48,77.62z"/>
			</g>
			<g>
				<path class="st25" d="M221.71,486.59c-0.24,0.86-1.03,1.42-1.87,1.42c-0.18,0-0.36-0.02-0.54-0.08l-87.76-24.98l-12.64,44.4
					c-0.24,0.86-1.02,1.42-1.87,1.42c-0.18,0-0.36-0.02-0.54-0.08c-1.03-0.3-1.63-1.37-1.34-2.4l12.64-44.4l-25.36-7.22
					c-1.03-0.3-1.63-1.37-1.34-2.4c0.3-1.03,1.38-1.63,2.4-1.34l25.36,7.22l19.57-68.73c0.29-1.03,1.37-1.63,2.39-1.34
					c1.03,0.3,1.63,1.37,1.34,2.4l-19.56,68.73l87.76,24.98C221.41,484.48,222.01,485.57,221.71,486.59z"/>
			</g>
			<g>
				<path class="st25" d="M70.11,329.77L9.85,368.15l49.01,76.96c0.58,0.91,0.31,2.11-0.59,2.68c-0.33,0.21-0.68,0.31-1.04,0.31
					c-0.65,0-1.28-0.32-1.64-0.9L6.57,370.24l-38.94,24.8c-0.33,0.21-0.68,0.3-1.04,0.3c-0.65,0-1.28-0.32-1.64-0.89
					c-0.58-0.91-0.31-2.11,0.59-2.69l38.94-24.8l-14.17-22.24c-0.58-0.9-0.31-2.11,0.59-2.68c0.91-0.58,2.11-0.31,2.68,0.6
					l14.17,22.24l60.27-38.39c0.9-0.58,2.11-0.31,2.68,0.6C71.29,327.99,71.02,329.19,70.11,329.77z"/>
			</g>
			<g>
				<path class="st25" d="M217.06,270.67l-60.27,38.39l49.01,76.96c0.58,0.91,0.31,2.11-0.59,2.68c-0.33,0.21-0.68,0.31-1.04,0.31
					c-0.65,0-1.28-0.32-1.64-0.9l-49.01-76.97l-38.94,24.8c-0.33,0.21-0.68,0.3-1.04,0.3c-0.65,0-1.28-0.32-1.64-0.89
					c-0.58-0.91-0.31-2.11,0.59-2.69l38.94-24.8l-14.17-22.24c-0.58-0.9-0.31-2.11,0.59-2.68c0.91-0.58,2.11-0.31,2.68,0.6
					l14.17,22.24l60.27-38.39c0.9-0.58,2.11-0.31,2.68,0.6C218.24,268.89,217.97,270.1,217.06,270.67z"/>
			</g>
		</g>
	</g>
</g>
<g>
	<g>
		<defs>
			<path id="SVGID_00000174570758981214483460000001711059177576658322_" d="M272.2,478H217V-0.1h55.2V478z"/>
		</defs>
		<clipPath id="SVGID_00000040573743541104072010000001641582647450787996_">
			<use xlink:href="#SVGID_00000174570758981214483460000001711059177576658322_"  style="overflow:visible;"/>
		</clipPath>
		<g style="clip-path:url(#SVGID_00000040573743541104072010000001641582647450787996_);">
			<g>
				
					<rect x="134.54" y="18.33" transform="matrix(0.7071 -0.7071 0.7071 0.7071 49.889 162.2338)" class="st25" width="172.49" height="5.14"/>
			</g>
			<g>
				
					<rect x="152.01" y="58.42" transform="matrix(0.7071 -0.7071 0.7071 0.7071 26.6593 186.3327)" class="st25" width="172.49" height="5.14"/>
			</g>
		</g>
	</g>
</g>
</svg>
