<?xml version="1.0" encoding="utf-8"?>
<!-- Generator: Adobe Illustrator 25.4.1, SVG Export Plug-In . SVG Version: 6.00 Build 0)  -->
<svg version="1.1" id="Layer_1" xmlns="http://www.w3.org/2000/svg" xmlns:xlink="http://www.w3.org/1999/xlink" x="0px" y="0px"
	 viewBox="0 0 106 519" style="enable-background:new 0 0 106 519;" xml:space="preserve">
<style type="text/css">
	.st0{fill:#F7FF96;}
	.st1{fill:#F9F5E9;}
	.st2{opacity:0.1;}
	.st3{fill:#F9F5E9;stroke:#000000;stroke-width:3;}
	.st4{fill:#00511B;}
	.st5{fill:none;stroke:#FFFFFF;stroke-width:3;}
	.st6{fill:#FFFFFF;}
	.st7{fill:#CC00FF;}
	.st8{opacity:0.4;fill:none;stroke:#8B2886;stroke-width:7;stroke-miterlimit:10;}
	.st9{fill:#525174;}
	.st10{fill:#EE9300;}
	.st11{fill:#9302C3;}
	.st12{fill:#025C00;}
	.st13{fill:#0F0F0F;}
	.st14{fill:none;stroke:#F9F5E9;stroke-miterlimit:10;}
	.st15{fill:none;stroke:#FFFFFF;stroke-width:2;stroke-miterlimit:10;}
	.st16{fill:#0012B4;}
	.st17{fill:#F9F5E9;stroke:#E0DDD2;}
	.st18{opacity:0.05;}
	.st19{fill:none;stroke:#000000;stroke-width:3;}
	.st20{fill:none;stroke:#0F0F0F;stroke-miterlimit:10;}
	.st21{fill:#D600DC;}
	.st22{fill:#FFFB84;}
	.st23{fill:none;stroke:#0012B4;stroke-width:5;stroke-linecap:round;stroke-miterlimit:10;}
	.st24{clip-path:url(#SVGID_00000080886953811278047560000011509046762793622461_);}
	.st25{fill:#FBC2F7;}
	.st26{clip-path:url(#SVGID_00000165234635947857438000000003005379971613126072_);}
	.st27{fill:none;stroke:#A5E7FF;stroke-width:3;stroke-miterlimit:10;}
	.st28{clip-path:url(#SVGID_00000183229793737167070160000011093967563495032240_);}
	.st29{clip-path:url(#SVGID_00000041978459223421444830000017524478354569137039_);}
</style>
<g>
	<path class="st6" d="M79.7,478H26V12.9h53.7V478z"/>
	<g>
		<defs>
			<path id="SVGID_00000048497030384053209830000017723189574149467273_" d="M79.7,478H26V12.9h53.7V478z"/>
		</defs>
		<clipPath id="SVGID_00000105390642413379126930000017949088627116821160_">
			<use xlink:href="#SVGID_00000048497030384053209830000017723189574149467273_"  style="overflow:visible;"/>
		</clipPath>
		<g style="clip-path:url(#SVGID_00000105390642413379126930000017949088627116821160_);">
			<g>
				
					<rect x="-54.22" y="30.82" transform="matrix(0.7071 -0.7071 0.7071 0.7071 -14.8724 30.7442)" class="st25" width="167.8" height="5"/>
			</g>
			<g>
				
					<rect x="-37.22" y="69.82" transform="matrix(0.7071 -0.7071 0.7071 0.7071 -37.4704 54.1878)" class="st25" width="167.8" height="5"/>
			</g>
			<g>
				
					<rect x="-22.22" y="107.82" transform="matrix(0.7071 -0.7071 0.7071 0.7071 -59.9471 75.9244)" class="st25" width="167.8" height="5"/>
			</g>
			<g>
				
					<rect x="-17.22" y="153.82" transform="matrix(0.7071 -0.7071 0.7071 0.7071 -91.0095 92.933)" class="st25" width="167.8" height="5"/>
			</g>
			<g>
				
					<rect x="-17.22" y="206.82" transform="matrix(0.7071 -0.7071 0.7071 0.7071 -128.4862 108.4563)" class="st25" width="167.8" height="5"/>
			</g>
			<g>
				
					<rect x="-17.22" y="258.82" transform="matrix(0.7071 -0.7071 0.7071 0.7071 -165.2557 123.6868)" class="st25" width="167.8" height="5"/>
			</g>
			<g>
				
					<rect x="-27.22" y="318.82" transform="matrix(0.7071 -0.7071 0.7071 0.7071 -210.6111 134.1893)" class="st25" width="167.8" height="5"/>
			</g>
			<g>
				
					<rect x="-12.22" y="356.82" transform="matrix(0.7071 -0.7071 0.7071 0.7071 -233.0877 155.9259)" class="st25" width="167.8" height="5"/>
			</g>
			<g>
				
					<rect x="-7.22" y="402.82" transform="matrix(0.7071 -0.7071 0.7071 0.7071 -264.1502 172.9345)" class="st25" width="167.8" height="5"/>
			</g>
			<g>
				
					<rect x="-7.22" y="455.82" transform="matrix(0.7071 -0.7071 0.7071 0.7071 -301.6268 188.4578)" class="st25" width="167.8" height="5"/>
			</g>
		</g>
	</g>
</g>
</svg>
