<?xml version="1.0" encoding="utf-8"?>
<!-- Generator: Adobe Illustrator 25.4.1, SVG Export Plug-In . SVG Version: 6.00 Build 0)  -->
<svg version="1.1" id="Layer_1" xmlns="http://www.w3.org/2000/svg" xmlns:xlink="http://www.w3.org/1999/xlink" x="0px" y="0px"
	 viewBox="0 0 56 478" style="enable-background:new 0 0 56 478;" xml:space="preserve">
<style type="text/css">
	.st0{fill:#F7FF96;}
	.st1{fill:#F9F5E9;}
	.st2{opacity:0.1;}
	.st3{fill:#F9F5E9;stroke:#000000;stroke-width:3;}
	.st4{fill:#00511B;}
	.st5{fill:none;stroke:#FFFFFF;stroke-width:3;}
	.st6{fill:#FFFFFF;}
	.st7{fill:#CC00FF;}
	.st8{opacity:0.4;fill:none;stroke:#8B2886;stroke-width:7;stroke-miterlimit:10;}
	.st9{fill:#525174;}
	.st10{fill:#EE9300;}
	.st11{fill:#9302C3;}
	.st12{fill:#025C00;}
	.st13{fill:#0F0F0F;}
	.st14{fill:none;stroke:#F9F5E9;stroke-miterlimit:10;}
	.st15{fill:none;stroke:#FFFFFF;stroke-width:2;stroke-miterlimit:10;}
	.st16{fill:#0012B4;}
	.st17{fill:#F9F5E9;stroke:#E0DDD2;}
	.st18{opacity:0.05;}
	.st19{fill:none;stroke:#000000;stroke-width:3;}
	.st20{fill:none;stroke:#0F0F0F;stroke-miterlimit:10;}
	.st21{fill:#D600DC;}
	.st22{fill:#FFFB84;}
	.st23{fill:none;stroke:#0012B4;stroke-width:5;stroke-linecap:round;stroke-miterlimit:10;}
	.st24{clip-path:url(#SVGID_00000063594488344167460410000005020909829924234145_);}
	.st25{fill:#FBC2F7;}
	.st26{clip-path:url(#SVGID_00000008114632632064651060000010811746648535102654_);}
	.st27{fill:none;stroke:#A5E7FF;stroke-width:3;stroke-miterlimit:10;}
	.st28{clip-path:url(#SVGID_00000142895020009256043650000016995198833546531005_);}
	.st29{clip-path:url(#SVGID_00000152239649034290268280000017550134892592660912_);}
</style>
<g>
	<g>
		<defs>
			<path id="SVGID_00000154388241545221830890000012759975002280113585_" d="M-158.07,478h-57.87V-0.11h57.87V203.5h69.67V-0.11
				h57.87V478H-88.4V261.38h-69.67V478z"/>
		</defs>
		<clipPath id="SVGID_00000081638666341006396420000005361393493169687968_">
			<use xlink:href="#SVGID_00000154388241545221830890000012759975002280113585_"  style="overflow:visible;"/>
		</clipPath>
		<g style="clip-path:url(#SVGID_00000081638666341006396420000005361393493169687968_);">
			<g>
				<path class="st25" d="M3.09,190.31c-0.31,0.75-1.03,1.21-1.8,1.21c-0.24,0-0.5-0.05-0.74-0.15l-66.06-27.24l-34.78,84.35
					c-0.31,0.75-1.03,1.21-1.8,1.21c-0.24,0-0.5-0.05-0.74-0.15c-0.99-0.4-1.46-1.55-1.06-2.53l34.79-84.36l-42.68-17.6
					c-1-0.41-1.46-1.55-1.06-2.53c0.41-1,1.55-1.47,2.54-1.06l42.67,17.6l10.05-24.38c0.41-1,1.55-1.47,2.54-1.06
					c1,0.4,1.46,1.55,1.06,2.53l-10.05,24.38l66.06,27.24C3.02,188.19,3.5,189.32,3.09,190.31z"/>
			</g>
			<g>
				<path class="st25" d="M41.48,77.62c-0.24,0.86-1.03,1.42-1.87,1.42c-0.18,0-0.36-0.02-0.54-0.08l-87.76-24.98l-12.64,44.4
					c-0.24,0.86-1.02,1.42-1.87,1.42c-0.18,0-0.36-0.02-0.54-0.08c-1.03-0.3-1.63-1.37-1.34-2.4l12.64-44.4l-25.36-7.22
					c-1.03-0.3-1.63-1.37-1.34-2.4c0.3-1.03,1.38-1.63,2.4-1.34l25.36,7.22l19.57-68.73c0.29-1.03,1.37-1.63,2.39-1.34
					c1.03,0.3,1.63,1.37,1.34,2.4l-19.56,68.73l87.76,24.98C41.18,75.51,41.78,76.59,41.48,77.62z"/>
			</g>
			<g>
				<path class="st25" d="M5.71,486.59c-0.24,0.86-1.03,1.42-1.87,1.42c-0.18,0-0.36-0.02-0.54-0.08l-87.76-24.98l-12.64,44.4
					c-0.24,0.86-1.02,1.42-1.87,1.42c-0.18,0-0.36-0.02-0.54-0.08c-1.03-0.3-1.63-1.37-1.34-2.4l12.64-44.4l-25.36-7.22
					c-1.03-0.3-1.63-1.37-1.34-2.4c0.3-1.03,1.38-1.63,2.4-1.34l25.36,7.22l19.57-68.73c0.29-1.03,1.37-1.63,2.39-1.34
					c1.03,0.3,1.63,1.37,1.34,2.4l-19.56,68.73l87.76,24.98C5.41,484.48,6.01,485.57,5.71,486.59z"/>
			</g>
			<g>
				<path class="st25" d="M1.06,270.67l-60.27,38.39l49.01,76.96c0.58,0.91,0.31,2.11-0.59,2.68c-0.33,0.21-0.68,0.31-1.04,0.31
					c-0.65,0-1.28-0.32-1.64-0.9l-49.01-76.97l-38.94,24.8c-0.33,0.21-0.68,0.3-1.04,0.3c-0.65,0-1.28-0.32-1.64-0.89
					c-0.58-0.91-0.31-2.11,0.59-2.69l38.94-24.8l-14.17-22.24c-0.58-0.9-0.31-2.11,0.59-2.68c0.91-0.58,2.11-0.31,2.68,0.6
					l14.17,22.24l60.27-38.39c0.9-0.58,2.11-0.31,2.68,0.6C2.24,268.89,1.97,270.1,1.06,270.67z"/>
			</g>
		</g>
	</g>
</g>
<g>
	<path class="st6" d="M56.2,478H1V-0.1h55.2V478z"/>
	<g>
		<defs>
			<path id="SVGID_00000083053943797498723890000007122351454609654156_" d="M56.2,478H1V-0.1h55.2V478z"/>
		</defs>
		<clipPath id="SVGID_00000155128044791928571200000003195602327590618794_">
			<use xlink:href="#SVGID_00000083053943797498723890000007122351454609654156_"  style="overflow:visible;"/>
		</clipPath>
		<g style="clip-path:url(#SVGID_00000155128044791928571200000003195602327590618794_);">
			<g>
				
					<rect x="-81.46" y="18.33" transform="matrix(0.7071 -0.7071 0.7071 0.7071 -13.376 9.4988)" class="st25" width="172.49" height="5.14"/>
			</g>
			<g>
				
					<rect x="-63.99" y="58.42" transform="matrix(0.7071 -0.7071 0.7071 0.7071 -36.6056 33.5977)" class="st25" width="172.49" height="5.14"/>
			</g>
			<g>
				
					<rect x="-48.57" y="97.48" transform="matrix(0.7071 -0.7071 0.7071 0.7071 -59.7105 55.9418)" class="st25" width="172.49" height="5.14"/>
			</g>
			<g>
				
					<rect x="-43.43" y="144.76" transform="matrix(0.7071 -0.7071 0.7071 0.7071 -91.6412 73.4258)" class="st25" width="172.49" height="5.14"/>
			</g>
			<g>
				
					<rect x="-43.43" y="199.25" transform="matrix(0.7071 -0.7071 0.7071 0.7071 -130.1653 89.383)" class="st25" width="172.49" height="5.14"/>
			</g>
			<g>
				
					<rect x="-43.43" y="252.7" transform="matrix(0.7071 -0.7071 0.7071 0.7071 -167.9626 105.0392)" class="st25" width="172.49" height="5.14"/>
			</g>
			<g>
				
					<rect x="-53.71" y="314.38" transform="matrix(0.7071 -0.7071 0.7071 0.7071 -214.5857 115.8353)" class="st25" width="172.49" height="5.14"/>
			</g>
			<g>
				
					<rect x="-38.29" y="353.44" transform="matrix(0.7071 -0.7071 0.7071 0.7071 -237.6906 138.1794)" class="st25" width="172.49" height="5.14"/>
			</g>
			<g>
				
					<rect x="-33.15" y="400.72" transform="matrix(0.7071 -0.7071 0.7071 0.7071 -269.6213 155.6634)" class="st25" width="172.49" height="5.14"/>
			</g>
			<g>
				
					<rect x="-33.15" y="455.21" transform="matrix(0.7071 -0.7071 0.7071 0.7071 -308.1454 171.6206)" class="st25" width="172.49" height="5.14"/>
			</g>
		</g>
	</g>
</g>
</svg>
